<svg xmlns="http://www.w3.org/2000/svg" viewBox="0 0 1400 640" role="img" aria-labelledby="title desc">
  <title id="title">Clare Life Ceremonies By Design elegant logo</title>
  <desc id="desc">Primary elegant serif logo with a subtle peacock feather, the name Clare Life Ceremonies, and the tagline By Design.</desc>
  <rect width="1400" height="640" rx="36" fill="#f7f1e8"/>
  <rect x="24" y="24" width="1352" height="592" rx="28" fill="none" stroke="#dccbb8" stroke-width="2"/>
  <g transform="translate(120 98)">
    <path d="M162 6c-20 35-27 64-24 102 2 31-6 58-24 93" fill="none" stroke="#6d7f67" stroke-width="7" stroke-linecap="round"/>
    <path d="M162 6c32 28 44 57 41 92-3 26-16 46-42 61" fill="none" stroke="#a17a60" stroke-width="4.5" stroke-linecap="round" opacity=".88"/>
    <path d="M160 23c24 16 34 33 34 54 0 22-13 39-38 49" fill="none" stroke="#c3a264" stroke-width="3.5" stroke-linecap="round" opacity=".9"/>
    <ellipse cx="169" cy="79" rx="22" ry="30" fill="#6d7f67" opacity=".17"/>
    <ellipse cx="169" cy="79" rx="13.5" ry="18" fill="#d1b581" opacity=".66"/>
    <ellipse cx="169" cy="79" rx="7" ry="9.5" fill="#6d7f67"/>
  </g>
  <text x="346" y="244" fill="#2b2621" font-family="'Cormorant Garamond', serif" font-size="124" font-weight="600" letter-spacing="1.4">Clare Life Ceremonies</text>
  <text x="352" y="325" fill="#7a6452" font-family="'Manrope', sans-serif" font-size="28" font-weight="700" letter-spacing="13" text-transform="uppercase">BY DESIGN</text>
  <line x1="352" y1="366" x2="1080" y2="366" stroke="#c8b59c" stroke-width="2"/>
  <text x="352" y="444" fill="#556650" font-family="'Manrope', sans-serif" font-size="30" font-weight="500">Warm, modern ceremonies with a personal and elegant feel</text>
</svg>
