<svg xmlns="http://www.w3.org/2000/svg" viewBox="0 0 1400 640" role="img" aria-labelledby="title desc">
  <title id="title">Boho decorative logo direction</title>
  <desc id="desc">Boho decorative concept for Clare Life Ceremonies By Design.</desc>
  <rect width="1400" height="640" rx="36" fill="#f8f2ea"/>
  <path d="M140 134h1120" stroke="#dcc9b0" stroke-width="2"/>
  <path d="M140 506h1120" stroke="#dcc9b0" stroke-width="2"/>
  <g transform="translate(140 138)">
    <path d="M134 10c-15 24-20 44-18 69 2 23-4 42-18 67" fill="none" stroke="#6c7f67" stroke-width="6" stroke-linecap="round"/>
    <path d="M134 10c21 18 30 35 29 58-2 18-11 32-28 42" fill="none" stroke="#b8896d" stroke-width="3.6" stroke-linecap="round"/>
    <ellipse cx="137" cy="61" rx="15" ry="19" fill="#c9ae74" opacity=".68"/>
    <ellipse cx="137" cy="61" rx="7" ry="9" fill="#6c7f67"/>
  </g>
  <text x="284" y="280" fill="#2c2621" font-family="'Cormorant Garamond', serif" font-size="118" font-weight="600">Clare Life Ceremonies</text>
  <text x="494" y="360" fill="#876d59" font-family="'Cormorant Garamond', serif" font-size="52" font-style="italic">By Design</text>
  <path d="M448 348c-28 0-48 19-61 43" fill="none" stroke="#7a8b74" stroke-width="2.5" stroke-linecap="round"/>
  <path d="M779 348c28 0 48 19 61 43" fill="none" stroke="#7a8b74" stroke-width="2.5" stroke-linecap="round"/>
</svg>
